<svg width="22" height="22" viewBox="0 0 22 22" fill="none" xmlns="http://www.w3.org/2000/svg">
<path fill-rule="evenodd" clip-rule="evenodd" d="M10.9996 1.98828C6.46779 1.98847 2.60489 5.27516 1.87895 9.74848C1.15301 14.2218 3.77829 18.5614 8.0775 19.9947C8.5395 20.0756 8.71275 19.7984 8.71275 19.5558C8.71275 19.3364 8.70119 18.6087 8.70119 17.8349C6.37963 18.2622 5.77903 17.269 5.59423 16.7492C5.38917 16.2437 5.06411 15.7957 4.64713 15.444C4.32373 15.2708 3.86173 14.8434 4.63557 14.8319C5.23525 14.897 5.7655 15.2505 6.05623 15.779C6.31147 16.2375 6.7387 16.5756 7.2436 16.7186C7.74851 16.8616 8.28957 16.7978 8.74736 16.5413C8.78736 16.0715 8.99671 15.6323 9.33643 15.3055C7.28053 15.0745 5.13223 14.2775 5.13223 10.7432C5.11925 9.82489 5.45811 8.9364 6.07933 8.25996C5.79685 7.46183 5.8299 6.58593 6.17173 5.81136C6.17173 5.81136 6.94555 5.5688 8.71273 6.75846C10.2247 6.34263 11.8208 6.34263 13.3327 6.75846C15.0999 5.55726 15.8737 5.81136 15.8737 5.81136C16.2156 6.58592 16.2487 7.46183 15.9661 8.25996C16.5892 8.93524 16.9284 9.82451 16.9132 10.7432C16.9132 14.289 14.7534 15.0745 12.6975 15.3055C13.1437 15.7577 13.3713 16.3815 13.3212 17.0149C13.3212 18.2507 13.3096 19.244 13.3096 19.5559C13.3096 19.7984 13.4829 20.0872 13.9449 19.9948C18.2362 18.5499 20.8494 14.2095 20.1185 9.74086C19.3876 5.27224 15.5276 1.99064 10.9996 1.98828Z" fill="#919EAB"/>
</svg>
