<svg width="48" height="48" viewBox="0 0 48 48" fill="none" xmlns="http://www.w3.org/2000/svg">
<circle cx="24" cy="24" r="23.5" stroke="#F4F6F8"/>
<path fill-rule="evenodd" clip-rule="evenodd" d="M23.9998 23.5199C21.6139 23.5199 19.6798 21.5858 19.6798 19.1999C19.6798 16.814 21.6139 14.8799 23.9998 14.8799C26.3857 14.8799 28.3198 16.814 28.3198 19.1999C28.3198 21.5858 26.3857 23.5199 23.9998 23.5199ZM23.9998 24.4799C27.9763 24.4799 31.1998 27.7034 31.1998 31.6799V33.5999C31.1998 33.865 30.9849 34.0799 30.7198 34.0799H17.2798C17.0147 34.0799 16.7998 33.865 16.7998 33.5999V31.6799C16.7998 27.7034 20.0234 24.4799 23.9998 24.4799Z" fill="white"/>
</svg>
