<svg width="8" height="14" viewBox="0 0 8 14" fill="none" xmlns="http://www.w3.org/2000/svg">
<path fill-rule="evenodd" clip-rule="evenodd" d="M1.73492 4.84255L3.99921 2.67577L6.2635 4.84255C6.44916 5.02089 6.70189 5.12121 6.96553 5.12121C7.22918 5.12121 7.48191 5.02089 7.66756 4.84255C7.85475 4.66566 7.96004 4.42487 7.96004 4.17367C7.96004 3.92248 7.85475 3.68169 7.66756 3.5048L4.70124 0.678567C4.51558 0.50022 4.26285 0.399902 3.99921 0.399902C3.73557 0.399902 3.48284 0.50022 3.29718 0.678567L0.330855 3.5048C-0.0568654 3.87421 -0.0568654 4.47314 0.330855 4.84255C0.718576 5.21196 1.34719 5.21196 1.73492 4.84255V4.84255ZM6.2635 9.15726L3.99921 11.324L1.73491 9.15726C1.4841 8.91829 1.11854 8.82497 0.775921 8.91243C0.433307 8.9999 0.165694 9.25487 0.0738912 9.58131C-0.0179121 9.90774 0.0800409 10.256 0.330852 10.495L3.29718 13.3212C3.48284 13.4996 3.73556 13.5999 3.99921 13.5999C4.26285 13.5999 4.51558 13.4996 4.70124 13.3212L7.66756 10.495C8.05528 10.1256 8.05528 9.52667 7.66756 9.15726C7.27984 8.78785 6.65122 8.78785 6.2635 9.15726Z" fill="#454F5B"/>
</svg>
