<svg width="20" height="20" viewBox="0 0 20 20" fill="none" xmlns="http://www.w3.org/2000/svg">
<path d="M2.5 7.49967C2.5 7.05765 2.67559 6.63372 2.98816 6.32116C3.30072 6.0086 3.72464 5.83301 4.16667 5.83301H4.94167C5.21599 5.83305 5.48608 5.76538 5.72797 5.636C5.96987 5.50662 6.17609 5.31953 6.32833 5.09134L7.005 4.07467C7.15725 3.84648 7.36347 3.65939 7.60536 3.53002C7.84726 3.40064 8.11735 3.33297 8.39167 3.33301H11.6083C11.8827 3.33297 12.1527 3.40064 12.3946 3.53002C12.6365 3.65939 12.8428 3.84648 12.995 4.07467L13.6717 5.09134C13.8239 5.31953 14.0301 5.50662 14.272 5.636C14.5139 5.76538 14.784 5.83305 15.0583 5.83301H15.8333C16.2754 5.83301 16.6993 6.0086 17.0118 6.32116C17.3244 6.63372 17.5 7.05765 17.5 7.49967V14.9997C17.5 15.4417 17.3244 15.8656 17.0118 16.1782C16.6993 16.4907 16.2754 16.6663 15.8333 16.6663H4.16667C3.72464 16.6663 3.30072 16.4907 2.98816 16.1782C2.67559 15.8656 2.5 15.4417 2.5 14.9997V7.49967Z" stroke="black" stroke-linecap="round" stroke-linejoin="round"/>
<path d="M12.5 10.833C12.5 11.4961 12.2366 12.1319 11.7678 12.6008C11.2989 13.0696 10.663 13.333 10 13.333C9.33696 13.333 8.70107 13.0696 8.23223 12.6008C7.76339 12.1319 7.5 11.4961 7.5 10.833C7.5 10.17 7.76339 9.53408 8.23223 9.06524C8.70107 8.5964 9.33696 8.33301 10 8.33301C10.663 8.33301 11.2989 8.5964 11.7678 9.06524C12.2366 9.53408 12.5 10.17 12.5 10.833V10.833Z" stroke="black" stroke-linecap="round" stroke-linejoin="round"/>
</svg>
