<svg width="48" height="48" viewBox="0 0 48 48" fill="none" xmlns="http://www.w3.org/2000/svg">
<circle cx="24" cy="24" r="23.5" stroke="#F4F6F8"/>
<path fill-rule="evenodd" clip-rule="evenodd" d="M15.8244 18.0263L15.642 16.5296C15.5763 15.8951 15.0354 15.4127 14.3899 15.4127H13.7155C13.2982 15.4127 12.96 15.0785 12.96 14.6663C12.96 14.2541 13.2982 13.9199 13.7155 13.9199H14.3899C15.8105 13.9199 17.0007 14.9816 17.1453 16.3777L17.2829 17.707H32.6162C32.9332 17.707 33.1714 17.9928 33.1104 18.3002L31.7708 25.049C31.4465 26.6828 29.9971 27.8613 28.3119 27.8613H20.2833C20.5149 28.8706 21.4279 29.6023 22.493 29.6023H28.8165C28.8537 29.6023 28.8907 29.605 28.8722 29.6083C28.9275 29.6043 28.9832 29.6023 29.0391 29.6023C30.2907 29.6023 31.3053 30.6047 31.3053 31.8411C31.3053 33.0776 30.2907 34.0799 29.0391 34.0799C27.7875 34.0799 26.7729 33.0776 26.7729 31.8411C26.7729 31.5835 26.8171 31.3319 26.9019 31.095H24.1267C24.2114 31.3319 24.2556 31.5835 24.2556 31.8411C24.2556 33.0776 23.241 34.0799 21.9894 34.0799C20.7378 34.0799 19.7232 33.0776 19.7232 31.8411C19.7232 31.2958 19.9219 30.7819 20.271 30.3814C19.4122 29.7635 18.8456 28.8104 18.7358 27.7467L18.7242 27.6344C17.4946 27.1719 16.5871 26.0477 16.4662 24.6823L16.1617 21.2429C16.1565 21.2217 16.1528 21.1998 16.1505 21.1775L15.8244 18.0263ZM21.9894 32.8361C22.5456 32.8361 22.9965 32.3906 22.9965 31.8411C22.9965 31.2916 22.5456 30.8462 21.9894 30.8462C21.4332 30.8462 20.9823 31.2916 20.9823 31.8411C20.9823 32.3906 21.4332 32.8361 21.9894 32.8361ZM29.0391 32.8361C29.5953 32.8361 30.0462 32.3906 30.0462 31.8411C30.0462 31.2916 29.5953 30.8462 29.0391 30.8462C28.4829 30.8462 28.032 31.2916 28.032 31.8411C28.032 32.3906 28.4829 32.8361 29.0391 32.8361Z" fill="white"/>
</svg>
