<svg width="42" height="42" viewBox="0 0 42 42" fill="none" xmlns="http://www.w3.org/2000/svg">
<rect x="1" y="1" width="40" height="40" rx="8" stroke="#F4F6F8"/>
<path fill-rule="evenodd" clip-rule="evenodd" d="M14.4004 21.8795C14.4004 22.6085 14.9914 23.1995 15.7204 23.1995H16.6004C17.3294 23.1995 17.9204 22.6085 17.9204 21.8795V14.8395C17.9204 14.1105 17.3294 13.5195 16.6004 13.5195H15.7204C14.9914 13.5195 14.4004 14.1105 14.4004 14.8395V21.8795ZM18.8007 21.8796C18.8007 22.3964 18.6225 22.8716 18.3242 23.247C19.2796 24.6166 19.8759 26.1881 20.1152 27.9673C20.138 28.1368 20.2569 28.2777 20.4201 28.3286C22.0654 28.8423 23.0008 28.0261 22.9853 26.165C22.9823 25.8037 22.9658 25.4826 22.9306 24.9915C22.852 23.8946 22.8582 23.5952 22.98 23.3938C23.097 23.2001 23.477 23.134 24.3755 23.3061C24.6591 23.3604 24.9435 23.422 25.2586 23.4959C25.3004 23.5057 25.4202 23.5349 25.5742 23.5724C25.9326 23.6596 26.4763 23.7919 26.6554 23.8309C27.1438 23.9373 27.4943 23.9823 27.8025 23.9633C28.6373 23.9116 29.0803 23.3694 29.1569 22.3305C29.2917 20.501 28.8751 16.8261 28.4596 15.4725C28.0349 14.0893 27.2943 13.5672 25.5166 13.5357C24.3737 13.5154 22.6158 13.5154 20.2348 13.5358C19.627 13.55 19.0761 13.6687 18.5862 13.8907C18.7237 14.178 18.8007 14.4998 18.8007 14.8396V21.8796Z" fill="#C4CDD5"/>
</svg>
