<svg width="20" height="20" viewBox="0 0 20 20" fill="none" xmlns="http://www.w3.org/2000/svg">
<path fill-rule="evenodd" clip-rule="evenodd" d="M17.4761 1.6001H2.5241C2.01379 1.6001 1.6001 2.01379 1.6001 2.5241V17.4761C1.6001 17.7212 1.69745 17.9562 1.87073 18.1295C2.04401 18.3027 2.27904 18.4001 2.5241 18.4001H10.5713V11.8901H8.3873V9.3701H10.5713V7.4801C10.4797 6.5819 10.7898 5.68915 11.4184 5.04108C12.047 4.39302 12.9299 4.05591 13.8305 4.1201C14.4843 4.11607 15.1378 4.14973 15.7877 4.2209V6.4889H14.4521C13.3937 6.4889 13.1921 6.9929 13.1921 7.7237V9.3449H15.7121L15.3845 11.8649H13.1921V18.4001H17.4761C17.7212 18.4001 17.9562 18.3027 18.1295 18.1295C18.3027 17.9562 18.4001 17.7212 18.4001 17.4761V2.5241C18.4001 2.27904 18.3027 2.04401 18.1295 1.87073C17.9562 1.69745 17.7212 1.6001 17.4761 1.6001Z" fill="white"/>
</svg>
