<svg width="21" height="18" viewBox="0 0 21 18" fill="none" xmlns="http://www.w3.org/2000/svg">
<path d="M5.17522 3.6002C5.17522 3.3615 5.06618 3.13258 4.87208 2.9638C4.67798 2.79502 4.41472 2.7002 4.14022 2.7002C3.86572 2.7002 3.60247 2.79502 3.40837 2.9638C3.21427 3.13258 3.10522 3.3615 3.10522 3.6002V10.1414C2.79057 10.2994 2.52928 10.5266 2.34761 10.8002C2.16595 11.0739 2.07031 11.3842 2.07031 11.7002C2.07031 12.0161 2.16595 12.3265 2.34761 12.6002C2.52928 12.8738 2.79057 13.101 3.10522 13.259V14.4002C3.10522 14.6389 3.21427 14.8678 3.40837 15.0366C3.60247 15.2054 3.86572 15.3002 4.14022 15.3002C4.41472 15.3002 4.67798 15.2054 4.87208 15.0366C5.06618 14.8678 5.17522 14.6389 5.17522 14.4002V13.259C5.48988 13.101 5.75117 12.8738 5.93283 12.6002C6.11449 12.3265 6.21013 12.0161 6.21013 11.7002C6.21013 11.3842 6.11449 11.0739 5.93283 10.8002C5.75117 10.5266 5.48988 10.2994 5.17522 10.1414V3.6002ZM11.3852 3.6002C11.3852 3.3615 11.2762 3.13258 11.0821 2.9638C10.888 2.79502 10.6247 2.7002 10.3502 2.7002C10.0757 2.7002 9.81247 2.79502 9.61837 2.9638C9.42427 3.13258 9.31522 3.3615 9.31522 3.6002V4.7414C9.00057 4.89938 8.73928 5.12661 8.55761 5.40023C8.37595 5.67386 8.28031 5.98425 8.28031 6.3002C8.28031 6.61615 8.37595 6.92653 8.55761 7.20016C8.73928 7.47378 9.00057 7.70101 9.31522 7.859V14.4002C9.31522 14.6389 9.42427 14.8678 9.61837 15.0366C9.81247 15.2054 10.0757 15.3002 10.3502 15.3002C10.6247 15.3002 10.888 15.2054 11.0821 15.0366C11.2762 14.8678 11.3852 14.6389 11.3852 14.4002V7.859C11.6999 7.70101 11.9612 7.47378 12.1428 7.20016C12.3245 6.92653 12.4201 6.61615 12.4201 6.3002C12.4201 5.98425 12.3245 5.67386 12.1428 5.40023C11.9612 5.12661 11.6999 4.89938 11.3852 4.7414V3.6002ZM16.5602 2.7002C16.8347 2.7002 17.098 2.79502 17.2921 2.9638C17.4862 3.13258 17.5952 3.3615 17.5952 3.6002V10.1414C17.9099 10.2994 18.1712 10.5266 18.3528 10.8002C18.5345 11.0739 18.6301 11.3842 18.6301 11.7002C18.6301 12.0161 18.5345 12.3265 18.3528 12.6002C18.1712 12.8738 17.9099 13.101 17.5952 13.259V14.4002C17.5952 14.6389 17.4862 14.8678 17.2921 15.0366C17.098 15.2054 16.8347 15.3002 16.5602 15.3002C16.2857 15.3002 16.0225 15.2054 15.8284 15.0366C15.6343 14.8678 15.5252 14.6389 15.5252 14.4002V13.259C15.2106 13.101 14.9493 12.8738 14.7676 12.6002C14.5859 12.3265 14.4903 12.0161 14.4903 11.7002C14.4903 11.3842 14.5859 11.0739 14.7676 10.8002C14.9493 10.5266 15.2106 10.2994 15.5252 10.1414V3.6002C15.5252 3.3615 15.6343 3.13258 15.8284 2.9638C16.0225 2.79502 16.2857 2.7002 16.5602 2.7002Z" fill="#4592FF"/>
</svg>
