<svg width="37" height="38" viewBox="0 0 37 38" fill="none" xmlns="http://www.w3.org/2000/svg">
<rect x="1" y="1" width="35" height="36" rx="17.5" fill="white" stroke="#E7EEF5"/>
<path d="M25.6519 12.1035H10.3481C9.60353 12.1035 9 12.707 9 13.4516V22.5486C9 23.2931 9.60353 23.8966 10.3481 23.8966H25.6519C26.3964 23.8966 27 23.2931 27 22.5486V13.4516C27 12.707 26.3965 12.1035 25.6519 12.1035Z" fill="#F5F5F5"/>
<path d="M9.07422 13.0107H26.9259C26.7432 12.4827 26.242 12.1035 25.652 12.1035H10.3481C9.75808 12.1035 9.25693 12.4827 9.07422 13.0107Z" fill="#FF4B55"/>
<path d="M27 15.7324H9V16.6396H27V15.7324Z" fill="#FF4B55"/>
<path d="M27 13.918H9V14.8251H27V13.918Z" fill="#FF4B55"/>
<path d="M9 18.1437C9 18.3151 9.13897 18.454 9.31036 18.454H27V17.5469H9V18.1437Z" fill="#FF4B55"/>
<path d="M27 21.1758H9V22.083H27V21.1758Z" fill="#FF4B55"/>
<path d="M26.9259 22.9893H9.07422C9.25693 23.5172 9.75811 23.8964 10.3481 23.8964H25.652C26.2421 23.8964 26.7432 23.5172 26.9259 22.9893Z" fill="#FF4B55"/>
<path d="M27 19.3613H9V20.2685H27V19.3613Z" fill="#FF4B55"/>
<path d="M9.31036 18.4537H17.069C17.2404 18.4537 17.3794 18.3147 17.3794 18.1433V12.4139C17.3794 12.2425 17.2404 12.1035 17.069 12.1035H10.3481C9.60353 12.1036 9 12.7071 9 13.4516V18.1433C9 18.3148 9.13897 18.4537 9.31036 18.4537Z" fill="#41479B"/>
<path d="M9.8714 12.8159L9.94009 13.0219L10.1573 13.0236C10.1854 13.0238 10.197 13.0597 10.1744 13.0764L9.99972 13.2054L10.0652 13.4124C10.0738 13.4392 10.0432 13.4614 10.0203 13.445L9.84366 13.3188L9.667 13.4451C9.64411 13.4614 9.61363 13.4392 9.62207 13.4124L9.6876 13.2054L9.51291 13.0764C9.4903 13.0597 9.50194 13.0238 9.53006 13.0236L9.74722 13.022L9.81592 12.8159C9.82478 12.7892 9.86247 12.7892 9.8714 12.8159Z" fill="#F5F5F5"/>
<path d="M9.8714 13.894L9.94009 14.1L10.1573 14.1017C10.1854 14.1019 10.197 14.1377 10.1744 14.1545L9.99972 14.2835L10.0652 14.4905C10.0738 14.5173 10.0432 14.5396 10.0203 14.5232L9.84366 14.3969L9.667 14.5232C9.64411 14.5396 9.61363 14.5174 9.62207 14.4906L9.6876 14.2835L9.51291 14.1545C9.4903 14.1378 9.50194 14.102 9.53006 14.1017L9.74722 14.1001L9.81592 13.894C9.82478 13.8674 9.86247 13.8674 9.8714 13.894Z" fill="#F5F5F5"/>
<path d="M9.8714 14.9712L9.94009 15.1772L10.1573 15.1788C10.1854 15.1791 10.197 15.2149 10.1744 15.2317L9.99972 15.3607L10.0652 15.5677C10.0738 15.5945 10.0432 15.6167 10.0203 15.6003L9.84366 15.4741L9.667 15.6004C9.64411 15.6167 9.61363 15.5946 9.62207 15.5677L9.6876 15.3607L9.51291 15.2317C9.4903 15.215 9.50194 15.1791 9.53006 15.1789L9.74722 15.1772L9.81592 14.9712C9.82478 14.9445 9.86247 14.9445 9.8714 14.9712Z" fill="#F5F5F5"/>
<path d="M9.8714 16.0493L9.94009 16.2553L10.1573 16.257C10.1854 16.2572 10.197 16.2931 10.1744 16.3098L9.99972 16.4388L10.0652 16.6458C10.0738 16.6726 10.0432 16.6948 10.0203 16.6785L9.84366 16.5522L9.667 16.6785C9.64411 16.6948 9.61363 16.6727 9.62207 16.6459L9.6876 16.4388L9.51291 16.3098C9.4903 16.2931 9.50194 16.2573 9.53006 16.257L9.74722 16.2554L9.81592 16.0493C9.82478 16.0226 9.86247 16.0226 9.8714 16.0493Z" fill="#F5F5F5"/>
<path d="M9.8714 17.1264L9.94009 17.3324L10.1573 17.3341C10.1854 17.3343 10.197 17.3702 10.1744 17.3869L9.99972 17.5159L10.0652 17.723C10.0738 17.7497 10.0432 17.772 10.0203 17.7556L9.84366 17.6293L9.667 17.7556C9.64411 17.772 9.61363 17.7498 9.62207 17.723L9.6876 17.516L9.51291 17.3869C9.4903 17.3702 9.50194 17.3344 9.53006 17.3341L9.74722 17.3325L9.81592 17.1265C9.82478 17.0998 9.86247 17.0998 9.8714 17.1264Z" fill="#F5F5F5"/>
<path d="M10.7083 13.3442L10.777 13.5502L10.9942 13.5519C11.0223 13.5521 11.0339 13.588 11.0113 13.6047L10.8366 13.7337L10.9022 13.9407C10.9107 13.9675 10.8801 13.9897 10.8572 13.9734L10.6806 13.8471L10.5039 13.9734C10.481 13.9897 10.4505 13.9675 10.459 13.9407L10.5245 13.7337L10.3498 13.6047C10.3272 13.5879 10.3389 13.5521 10.367 13.5519L10.5841 13.5502L10.6528 13.3442C10.6617 13.3176 10.6994 13.3176 10.7083 13.3442Z" fill="#F5F5F5"/>
<path d="M10.7083 14.4224L10.777 14.6284L10.9942 14.63C11.0223 14.6303 11.0339 14.6661 11.0113 14.6828L10.8366 14.8119L10.9022 15.0189C10.9107 15.0457 10.8801 15.0679 10.8572 15.0515L10.6806 14.9252L10.5039 15.0515C10.481 15.0679 10.4505 15.0457 10.459 15.0189L10.5245 14.8119L10.3498 14.6828C10.3272 14.6662 10.3389 14.6303 10.367 14.63L10.5841 14.6284L10.6528 14.4224C10.6617 14.3957 10.6994 14.3957 10.7083 14.4224Z" fill="#F5F5F5"/>
<path d="M10.7083 15.4995L10.777 15.7055L10.9942 15.7072C11.0223 15.7074 11.0339 15.7432 11.0113 15.76L10.8366 15.889L10.9022 16.096C10.9107 16.1228 10.8801 16.145 10.8572 16.1287L10.6806 16.0024L10.5039 16.1287C10.481 16.145 10.4505 16.1228 10.459 16.096L10.5245 15.889L10.3498 15.76C10.3272 15.7432 10.3389 15.7074 10.367 15.7072L10.5841 15.7055L10.6528 15.4995C10.6617 15.4728 10.6994 15.4728 10.7083 15.4995Z" fill="#F5F5F5"/>
<path d="M10.7083 16.5766L10.777 16.7826L10.9942 16.7843C11.0223 16.7845 11.0339 16.8204 11.0113 16.8371L10.8366 16.9661L10.9022 17.1732C10.9107 17.1999 10.8801 17.2222 10.8572 17.2058L10.6806 17.0795L10.5039 17.2058C10.481 17.2222 10.4505 17.1999 10.459 17.1732L10.5245 16.9661L10.3498 16.8371C10.3272 16.8204 10.3389 16.7845 10.367 16.7843L10.5841 16.7826L10.6528 16.5766C10.6617 16.55 10.6994 16.55 10.7083 16.5766Z" fill="#F5F5F5"/>
<path d="M11.5442 12.8159L11.6129 13.0219L11.8301 13.0236C11.8582 13.0238 11.8699 13.0597 11.8473 13.0764L11.6726 13.2054L11.7381 13.4124C11.7466 13.4392 11.7161 13.4614 11.6932 13.445L11.5165 13.3188L11.3398 13.445C11.317 13.4614 11.2865 13.4392 11.2949 13.4124L11.3604 13.2054L11.1858 13.0764C11.1632 13.0596 11.1748 13.0238 11.2029 13.0236L11.4201 13.0219L11.4888 12.8159C11.4976 12.7892 11.5354 12.7892 11.5442 12.8159Z" fill="#F5F5F5"/>
<path d="M11.5442 13.894L11.6129 14.1L11.8301 14.1017C11.8582 14.1019 11.8699 14.1377 11.8473 14.1545L11.6726 14.2835L11.7381 14.4905C11.7466 14.5173 11.7161 14.5395 11.6932 14.5232L11.5165 14.3969L11.3398 14.5232C11.317 14.5395 11.2865 14.5173 11.2949 14.4905L11.3604 14.2835L11.1858 14.1545C11.1632 14.1377 11.1748 14.1019 11.2029 14.1017L11.4201 14.1L11.4888 13.894C11.4976 13.8674 11.5354 13.8674 11.5442 13.894Z" fill="#F5F5F5"/>
<path d="M11.5442 14.9712L11.6129 15.1772L11.8301 15.1789C11.8582 15.1791 11.8699 15.2149 11.8473 15.2317L11.6726 15.3607L11.7381 15.5677C11.7466 15.5945 11.7161 15.6167 11.6932 15.6003L11.5165 15.4741L11.3398 15.6003C11.317 15.6167 11.2865 15.5945 11.2949 15.5677L11.3604 15.3607L11.1858 15.2317C11.1632 15.2149 11.1748 15.1791 11.2029 15.1789L11.4201 15.1772L11.4888 14.9712C11.4976 14.9445 11.5354 14.9445 11.5442 14.9712Z" fill="#F5F5F5"/>
<path d="M11.5442 16.0493L11.6129 16.2553L11.8301 16.257C11.8582 16.2572 11.8699 16.2931 11.8473 16.3098L11.6726 16.4388L11.7381 16.6458C11.7466 16.6726 11.7161 16.6949 11.6932 16.6785L11.5165 16.5522L11.3398 16.6785C11.317 16.6948 11.2865 16.6726 11.2949 16.6458L11.3604 16.4388L11.1858 16.3098C11.1632 16.2931 11.1748 16.2572 11.2029 16.257L11.4201 16.2553L11.4888 16.0493C11.4976 16.0226 11.5354 16.0226 11.5442 16.0493Z" fill="#F5F5F5"/>
<path d="M11.5442 17.1264L11.6129 17.3324L11.8301 17.3341C11.8582 17.3343 11.8699 17.3702 11.8473 17.3869L11.6726 17.5159L11.7381 17.723C11.7466 17.7498 11.7161 17.772 11.6932 17.7556L11.5165 17.6293L11.3398 17.7556C11.317 17.7719 11.2865 17.7498 11.2949 17.723L11.3604 17.5159L11.1858 17.3869C11.1632 17.3702 11.1748 17.3343 11.2029 17.3341L11.4201 17.3324L11.4888 17.1264C11.4976 17.0998 11.5354 17.0998 11.5442 17.1264Z" fill="#F5F5F5"/>
<path d="M12.3812 13.3442L12.4499 13.5502L12.667 13.5519C12.6951 13.5521 12.7068 13.588 12.6842 13.6047L12.5095 13.7337L12.575 13.9407C12.5835 13.9675 12.553 13.9897 12.5301 13.9734L12.3534 13.8471L12.1768 13.9734C12.1539 13.9897 12.1234 13.9675 12.1318 13.9407L12.1974 13.7337L12.0227 13.6047C12.0001 13.5879 12.0117 13.5521 12.0398 13.5519L12.257 13.5502L12.3257 13.3442C12.3345 13.3176 12.3723 13.3176 12.3812 13.3442Z" fill="#F5F5F5"/>
<path d="M12.3812 14.4224L12.4499 14.6284L12.667 14.63C12.6951 14.6303 12.7068 14.6661 12.6842 14.6828L12.5095 14.8119L12.575 15.0189C12.5835 15.0457 12.553 15.0679 12.5301 15.0515L12.3534 14.9252L12.1768 15.0515C12.1539 15.0679 12.1234 15.0457 12.1318 15.0189L12.1974 14.8119L12.0227 14.6828C12.0001 14.6662 12.0117 14.6303 12.0398 14.63L12.257 14.6284L12.3257 14.4224C12.3345 14.3957 12.3723 14.3957 12.3812 14.4224Z" fill="#F5F5F5"/>
<path d="M12.3812 15.4995L12.4499 15.7055L12.667 15.7072C12.6951 15.7074 12.7068 15.7432 12.6842 15.76L12.5095 15.889L12.575 16.096C12.5835 16.1228 12.553 16.145 12.5301 16.1287L12.3534 16.0024L12.1768 16.1287C12.1539 16.145 12.1234 16.1228 12.1318 16.096L12.1974 15.889L12.0227 15.76C12.0001 15.7432 12.0117 15.7074 12.0398 15.7072L12.257 15.7055L12.3257 15.4995C12.3345 15.4728 12.3723 15.4728 12.3812 15.4995Z" fill="#F5F5F5"/>
<path d="M12.3812 16.5766L12.4499 16.7826L12.667 16.7843C12.6951 16.7845 12.7068 16.8204 12.6842 16.8371L12.5095 16.9661L12.575 17.1732C12.5835 17.1999 12.553 17.2222 12.5301 17.2058L12.3534 17.0795L12.1768 17.2058C12.1539 17.2222 12.1234 17.1999 12.1318 17.1732L12.1974 16.9661L12.0227 16.8371C12.0001 16.8204 12.0117 16.7845 12.0398 16.7843L12.257 16.7826L12.3257 16.5766C12.3345 16.55 12.3723 16.55 12.3812 16.5766Z" fill="#F5F5F5"/>
<path d="M13.2171 12.8159L13.2858 13.0219L13.503 13.0236C13.5311 13.0238 13.5427 13.0597 13.5201 13.0764L13.3455 13.2054L13.411 13.4124C13.4195 13.4392 13.3889 13.4614 13.3661 13.445L13.1894 13.3188L13.0127 13.4451C12.9898 13.4614 12.9593 13.4392 12.9678 13.4124L13.0333 13.2054L12.8586 13.0764C12.836 13.0597 12.8476 13.0238 12.8758 13.0236L13.0929 13.022L13.1616 12.8159C13.1705 12.7892 13.2082 12.7892 13.2171 12.8159Z" fill="#F5F5F5"/>
<path d="M13.2171 13.893L13.2858 14.099L13.503 14.1007C13.5311 14.1009 13.5427 14.1368 13.5201 14.1535L13.3455 14.2825L13.411 14.4896C13.4195 14.5164 13.3889 14.5386 13.3661 14.5222L13.1894 14.3959L13.0127 14.5222C12.9898 14.5385 12.9593 14.5164 12.9678 14.4896L13.0333 14.2825L12.8586 14.1535C12.836 14.1368 12.8476 14.1009 12.8758 14.1007L13.0929 14.099L13.1616 13.893C13.1705 13.8664 13.2082 13.8664 13.2171 13.893Z" fill="#F5F5F5"/>
<path d="M13.2171 14.9712L13.2858 15.1772L13.503 15.1789C13.5311 15.1791 13.5427 15.2149 13.5201 15.2317L13.3455 15.3607L13.411 15.5677C13.4195 15.5945 13.3889 15.6167 13.3661 15.6003L13.1894 15.474L13.0127 15.6003C12.9898 15.6167 12.9593 15.5945 12.9678 15.5677L13.0333 15.3607L12.8586 15.2316C12.836 15.2149 12.8476 15.1791 12.8758 15.1788L13.0929 15.1772L13.1616 14.9712C13.1705 14.9445 13.2082 14.9445 13.2171 14.9712Z" fill="#F5F5F5"/>
<path d="M13.2171 16.0493L13.2858 16.2553L13.503 16.257C13.5311 16.2572 13.5427 16.2931 13.5201 16.3098L13.3455 16.4388L13.411 16.6458C13.4195 16.6726 13.3889 16.6949 13.3661 16.6785L13.1894 16.5522L13.0127 16.6785C12.9898 16.6948 12.9593 16.6726 12.9678 16.6458L13.0333 16.4388L12.8586 16.3098C12.836 16.2931 12.8476 16.2572 12.8758 16.257L13.0929 16.2553L13.1616 16.0493C13.1705 16.0226 13.2082 16.0226 13.2171 16.0493Z" fill="#F5F5F5"/>
<path d="M13.2171 17.1264L13.2858 17.3324L13.503 17.3341C13.5311 17.3343 13.5427 17.3702 13.5201 17.3869L13.3455 17.5159L13.411 17.723C13.4195 17.7498 13.3889 17.772 13.3661 17.7556L13.1894 17.6293L13.0127 17.7556C12.9898 17.7719 12.9593 17.7498 12.9678 17.723L13.0333 17.5159L12.8586 17.3869C12.836 17.3702 12.8476 17.3343 12.8758 17.3341L13.0929 17.3324L13.1616 17.1264C13.1705 17.0998 13.2082 17.0998 13.2171 17.1264Z" fill="#F5F5F5"/>
<path d="M14.054 13.3442L14.1227 13.5502L14.3399 13.5519C14.368 13.5521 14.3796 13.588 14.357 13.6047L14.1823 13.7337L14.2479 13.9407C14.2564 13.9675 14.2258 13.9897 14.2029 13.9734L14.0263 13.8471L13.8496 13.9734C13.8267 13.9897 13.7962 13.9675 13.8047 13.9407L13.8702 13.7337L13.6955 13.6047C13.6729 13.5879 13.6846 13.5521 13.7127 13.5519L13.9298 13.5502L13.9985 13.3442C14.0074 13.3176 14.0451 13.3176 14.054 13.3442Z" fill="#F5F5F5"/>
<path d="M14.054 14.4224L14.1227 14.6284L14.3399 14.63C14.368 14.6303 14.3796 14.6661 14.357 14.6828L14.1823 14.8119L14.2479 15.0189C14.2564 15.0457 14.2258 15.0679 14.2029 15.0515L14.0263 14.9252L13.8496 15.0515C13.8267 15.0679 13.7962 15.0457 13.8047 15.0189L13.8702 14.8119L13.6955 14.6828C13.6729 14.6662 13.6846 14.6303 13.7127 14.63L13.9298 14.6284L13.9985 14.4224C14.0074 14.3957 14.0451 14.3957 14.054 14.4224Z" fill="#F5F5F5"/>
<path d="M14.054 15.4995L14.1227 15.7055L14.3399 15.7072C14.368 15.7074 14.3796 15.7432 14.357 15.76L14.1823 15.889L14.2479 16.096C14.2564 16.1228 14.2258 16.145 14.2029 16.1287L14.0263 16.0024L13.8496 16.1287C13.8267 16.145 13.7962 16.1228 13.8047 16.096L13.8702 15.889L13.6955 15.76C13.6729 15.7432 13.6846 15.7074 13.7127 15.7072L13.9298 15.7055L13.9985 15.4995C14.0074 15.4728 14.0451 15.4728 14.054 15.4995Z" fill="#F5F5F5"/>
<path d="M14.054 16.5766L14.1227 16.7826L14.3399 16.7843C14.368 16.7845 14.3796 16.8204 14.357 16.8371L14.1823 16.9661L14.2479 17.1732C14.2564 17.1999 14.2258 17.2222 14.2029 17.2058L14.0263 17.0795L13.8496 17.2058C13.8267 17.2222 13.7962 17.1999 13.8047 17.1732L13.8702 16.9661L13.6955 16.8371C13.6729 16.8204 13.6846 16.7845 13.7127 16.7843L13.9298 16.7826L13.9985 16.5766C14.0074 16.55 14.0451 16.55 14.054 16.5766Z" fill="#F5F5F5"/>
<path d="M14.8899 12.8159L14.9586 13.0219L15.1758 13.0236C15.2039 13.0238 15.2156 13.0597 15.193 13.0764L15.0183 13.2054L15.0838 13.4124C15.0923 13.4392 15.0618 13.4614 15.0389 13.445L14.8622 13.3188L14.6856 13.445C14.6627 13.4614 14.6322 13.4392 14.6406 13.4124L14.7062 13.2054L14.5315 13.0764C14.5089 13.0596 14.5205 13.0238 14.5486 13.0236L14.7658 13.0219L14.8345 12.8159C14.8433 12.7892 14.8811 12.7892 14.8899 12.8159Z" fill="#F5F5F5"/>
<path d="M14.8899 13.893L14.9586 14.099L15.1758 14.1007C15.2039 14.1009 15.2156 14.1368 15.193 14.1535L15.0183 14.2825L15.0838 14.4896C15.0923 14.5164 15.0618 14.5386 15.0389 14.5222L14.8622 14.3959L14.6856 14.5222C14.6627 14.5385 14.6322 14.5164 14.6406 14.4896L14.7062 14.2825L14.5315 14.1535C14.5089 14.1368 14.5205 14.1009 14.5486 14.1007L14.7658 14.099L14.8345 13.893C14.8433 13.8664 14.8811 13.8664 14.8899 13.893Z" fill="#F5F5F5"/>
<path d="M14.8899 14.9712L14.9586 15.1772L15.1758 15.1789C15.2039 15.1791 15.2156 15.2149 15.193 15.2317L15.0183 15.3607L15.0838 15.5677C15.0923 15.5945 15.0618 15.6167 15.0389 15.6003L14.8622 15.4741L14.6856 15.6003C14.6627 15.6167 14.6322 15.5945 14.6406 15.5677L14.7062 15.3607L14.5315 15.2317C14.5089 15.2149 14.5205 15.1791 14.5486 15.1789L14.7658 15.1772L14.8345 14.9712C14.8433 14.9445 14.8811 14.9445 14.8899 14.9712Z" fill="#F5F5F5"/>
<path d="M14.8899 16.0493L14.9586 16.2553L15.1758 16.257C15.2039 16.2572 15.2156 16.2931 15.193 16.3098L15.0183 16.4388L15.0838 16.6458C15.0923 16.6726 15.0618 16.6949 15.0389 16.6785L14.8622 16.5522L14.6856 16.6785C14.6627 16.6948 14.6322 16.6726 14.6406 16.6458L14.7062 16.4388L14.5315 16.3098C14.5089 16.2931 14.5205 16.2572 14.5486 16.257L14.7658 16.2553L14.8345 16.0493C14.8433 16.0226 14.8811 16.0226 14.8899 16.0493Z" fill="#F5F5F5"/>
<path d="M14.8899 17.1264L14.9586 17.3324L15.1758 17.3341C15.2039 17.3343 15.2156 17.3702 15.193 17.3869L15.0183 17.5159L15.0838 17.723C15.0923 17.7498 15.0618 17.772 15.0389 17.7556L14.8622 17.6293L14.6856 17.7556C14.6627 17.7719 14.6322 17.7498 14.6406 17.723L14.7062 17.5159L14.5315 17.3869C14.5089 17.3702 14.5205 17.3343 14.5486 17.3341L14.7658 17.3324L14.8345 17.1264C14.8433 17.0998 14.8811 17.0998 14.8899 17.1264Z" fill="#F5F5F5"/>
<path d="M15.7269 13.3442L15.7956 13.5502L16.0127 13.5519C16.0408 13.5521 16.0525 13.588 16.0299 13.6047L15.8552 13.7337L15.9207 13.9407C15.9292 13.9675 15.8987 13.9897 15.8758 13.9734L15.6991 13.8471L15.5225 13.9734C15.4996 13.9897 15.4691 13.9675 15.4775 13.9407L15.5431 13.7337L15.3684 13.6047C15.3458 13.5879 15.3574 13.5521 15.3855 13.5519L15.6027 13.5502L15.6714 13.3442C15.6802 13.3176 15.718 13.3176 15.7269 13.3442Z" fill="#F5F5F5"/>
<path d="M15.7269 14.4224L15.7956 14.6284L16.0127 14.63C16.0408 14.6303 16.0525 14.6661 16.0299 14.6828L15.8552 14.8119L15.9207 15.0189C15.9292 15.0457 15.8987 15.0679 15.8758 15.0515L15.6991 14.9252L15.5225 15.0515C15.4996 15.0679 15.4691 15.0457 15.4775 15.0189L15.5431 14.8119L15.3684 14.6828C15.3458 14.6662 15.3574 14.6303 15.3855 14.63L15.6027 14.6284L15.6714 14.4224C15.6802 14.3957 15.718 14.3957 15.7269 14.4224Z" fill="#F5F5F5"/>
<path d="M15.7269 15.4995L15.7956 15.7055L16.0127 15.7072C16.0408 15.7074 16.0525 15.7432 16.0299 15.76L15.8552 15.889L15.9207 16.096C15.9292 16.1228 15.8987 16.145 15.8758 16.1287L15.6991 16.0024L15.5225 16.1287C15.4996 16.145 15.4691 16.1228 15.4775 16.096L15.5431 15.889L15.3684 15.76C15.3458 15.7432 15.3574 15.7074 15.3855 15.7072L15.6027 15.7055L15.6714 15.4995C15.6802 15.4728 15.718 15.4728 15.7269 15.4995Z" fill="#F5F5F5"/>
<path d="M15.7269 16.5766L15.7956 16.7826L16.0127 16.7843C16.0408 16.7845 16.0525 16.8204 16.0299 16.8371L15.8552 16.9661L15.9207 17.1732C15.9292 17.1999 15.8987 17.2222 15.8758 17.2058L15.6991 17.0795L15.5225 17.2058C15.4996 17.2222 15.4691 17.1999 15.4775 17.1732L15.5431 16.9661L15.3684 16.8371C15.3458 16.8204 15.3574 16.7845 15.3855 16.7843L15.6027 16.7826L15.6714 16.5766C15.6802 16.55 15.718 16.55 15.7269 16.5766Z" fill="#F5F5F5"/>
<path d="M16.5628 12.8159L16.6315 13.0219L16.8487 13.0236C16.8768 13.0238 16.8884 13.0597 16.8658 13.0764L16.6911 13.2054L16.7567 13.4124C16.7652 13.4392 16.7346 13.4614 16.7117 13.445L16.5351 13.3188L16.3584 13.445C16.3355 13.4614 16.305 13.4392 16.3135 13.4124L16.379 13.2054L16.2043 13.0764C16.1817 13.0596 16.1933 13.0238 16.2215 13.0236L16.4386 13.0219L16.5073 12.8159C16.5162 12.7892 16.5539 12.7892 16.5628 12.8159Z" fill="#F5F5F5"/>
<path d="M16.5628 13.893L16.6315 14.099L16.8487 14.1007C16.8768 14.1009 16.8884 14.1368 16.8658 14.1535L16.6911 14.2825L16.7567 14.4896C16.7652 14.5164 16.7346 14.5386 16.7117 14.5222L16.5351 14.3959L16.3584 14.5222C16.3355 14.5385 16.305 14.5164 16.3135 14.4896L16.379 14.2825L16.2043 14.1535C16.1817 14.1368 16.1933 14.1009 16.2215 14.1007L16.4386 14.099L16.5073 13.893C16.5162 13.8664 16.5539 13.8664 16.5628 13.893Z" fill="#F5F5F5"/>
<path d="M16.5628 14.9712L16.6315 15.1772L16.8487 15.1789C16.8768 15.1791 16.8884 15.2149 16.8658 15.2317L16.6911 15.3607L16.7567 15.5677C16.7652 15.5945 16.7346 15.6167 16.7117 15.6003L16.5351 15.4741L16.3584 15.6003C16.3355 15.6167 16.305 15.5945 16.3135 15.5677L16.379 15.3607L16.2043 15.2317C16.1817 15.2149 16.1933 15.1791 16.2215 15.1789L16.4386 15.1772L16.5073 14.9712C16.5162 14.9445 16.5539 14.9445 16.5628 14.9712Z" fill="#F5F5F5"/>
<path d="M16.5628 16.0493L16.6315 16.2553L16.8487 16.257C16.8768 16.2572 16.8884 16.2931 16.8658 16.3098L16.6911 16.4388L16.7567 16.6458C16.7652 16.6726 16.7346 16.6949 16.7117 16.6785L16.5351 16.5522L16.3584 16.6785C16.3355 16.6948 16.305 16.6726 16.3135 16.6458L16.379 16.4388L16.2043 16.3098C16.1817 16.2931 16.1933 16.2572 16.2215 16.257L16.4386 16.2553L16.5073 16.0493C16.5162 16.0226 16.5539 16.0226 16.5628 16.0493Z" fill="#F5F5F5"/>
<path d="M16.5628 17.1264L16.6315 17.3324L16.8487 17.3341C16.8768 17.3343 16.8884 17.3702 16.8658 17.3869L16.6911 17.5159L16.7567 17.723C16.7652 17.7498 16.7346 17.772 16.7117 17.7556L16.5351 17.6293L16.3584 17.7556C16.3355 17.7719 16.305 17.7498 16.3135 17.723L16.379 17.5159L16.2043 17.3869C16.1817 17.3702 16.1933 17.3343 16.2215 17.3341L16.4386 17.3324L16.5073 17.1264C16.5162 17.0998 16.5539 17.0998 16.5628 17.1264Z" fill="#F5F5F5"/>
</svg>
