<svg width="20" height="20" viewBox="0 0 20 20" fill="none" xmlns="http://www.w3.org/2000/svg">
<path fill-rule="evenodd" clip-rule="evenodd" d="M14.4857 4.5065V4.5065C14.078 4.5065 13.7104 4.75209 13.5544 5.12875C13.3984 5.50542 13.4846 5.93898 13.7729 6.22726C14.0612 6.51555 14.4948 6.60179 14.8714 6.44577C15.2481 6.28975 15.4937 5.9222 15.4937 5.5145C15.4937 4.95779 15.0424 4.5065 14.4857 4.5065V4.5065ZM18.3497 6.5393C18.3334 5.84235 18.2028 5.1528 17.9633 4.4981C17.7497 3.93793 17.4173 3.43069 16.9889 3.0113C16.5729 2.58074 16.0645 2.25041 15.5021 2.0453C14.8491 1.79847 14.1588 1.66495 13.4609 1.6505C12.5705 1.6001 12.2849 1.6001 10.0001 1.6001C7.7153 1.6001 7.4297 1.6001 6.5393 1.6505C5.84139 1.66495 5.15107 1.79847 4.4981 2.0453C3.93671 2.25248 3.42872 2.58253 3.0113 3.0113C2.58074 3.42725 2.25041 3.93567 2.0453 4.4981C1.79847 5.15107 1.66495 5.84139 1.6505 6.5393C1.6001 7.4297 1.6001 7.7153 1.6001 10.0001C1.6001 12.2849 1.6001 12.5705 1.6505 13.4609C1.66495 14.1588 1.79847 14.8491 2.0453 15.5021C2.25041 16.0645 2.58074 16.5729 3.0113 16.9889C3.42872 17.4177 3.93671 17.7477 4.4981 17.9549C5.15107 18.2017 5.84139 18.3352 6.5393 18.3497C7.4297 18.4001 7.7153 18.4001 10.0001 18.4001C12.2849 18.4001 12.5705 18.4001 13.4609 18.3497C14.1588 18.3352 14.8491 18.2017 15.5021 17.9549C16.0645 17.7498 16.5729 17.4195 16.9889 16.9889C17.4192 16.5711 17.7519 16.0634 17.9633 15.5021C18.2028 14.8474 18.3334 14.1578 18.3497 13.4609C18.3497 12.5705 18.4001 12.2849 18.4001 10.0001C18.4001 7.7153 18.4001 7.4297 18.3497 6.5393ZM16.8377 13.3601C16.8316 13.8933 16.735 14.4216 16.5521 14.9225C16.418 15.2881 16.2026 15.6184 15.9221 15.8885C15.6496 16.1661 15.32 16.3811 14.9561 16.5185C14.4552 16.7014 13.9269 16.798 13.3937 16.8041C12.5537 16.8461 12.2429 16.8545 10.0337 16.8545C7.8245 16.8545 7.5137 16.8545 6.6737 16.8041C6.12005 16.8145 5.56876 16.7292 5.0441 16.5521C4.69615 16.4077 4.38164 16.1932 4.1201 15.9221C3.84129 15.6522 3.62857 15.3217 3.4985 14.9561C3.29342 14.448 3.17967 13.9077 3.1625 13.3601C3.1625 12.5201 3.1121 12.2093 3.1121 10.0001C3.1121 7.7909 3.1121 7.4801 3.1625 6.6401C3.16626 6.09498 3.26578 5.55477 3.4565 5.0441C3.60438 4.68954 3.83136 4.37349 4.1201 4.1201C4.3753 3.83128 4.6907 3.6019 5.0441 3.4481C5.55612 3.26333 6.09578 3.16676 6.6401 3.1625C7.4801 3.1625 7.7909 3.1121 10.0001 3.1121C12.2093 3.1121 12.5201 3.1121 13.3601 3.1625C13.8933 3.16861 14.4216 3.26518 14.9225 3.4481C15.3042 3.58977 15.6468 3.82009 15.9221 4.1201C16.1974 4.37813 16.4125 4.69359 16.5521 5.0441C16.7388 5.5556 16.8354 6.09559 16.8377 6.6401C16.8797 7.4801 16.8881 7.7909 16.8881 10.0001C16.8881 12.2093 16.8797 12.5201 16.8377 13.3601ZM10.0001 5.6909C7.62129 5.69553 5.69621 7.62688 5.6993 10.0057C5.70239 12.3845 7.63248 14.3108 10.0113 14.3093C12.3901 14.3077 14.3177 12.3789 14.3177 10.0001C14.3199 8.85508 13.8655 7.75644 13.0551 6.94758C12.2446 6.13872 11.1451 5.68642 10.0001 5.6909ZM10.0001 12.7973C8.45525 12.7973 7.2029 11.5449 7.2029 10.0001C7.2029 8.45525 8.45525 7.2029 10.0001 7.2029C11.5449 7.2029 12.7973 8.45525 12.7973 10.0001C12.7973 10.742 12.5026 11.4534 11.978 11.978C11.4534 12.5026 10.742 12.7973 10.0001 12.7973Z" fill="white"/>
</svg>
