<svg width="42" height="42" viewBox="0 0 42 42" fill="none" xmlns="http://www.w3.org/2000/svg">
<rect x="1" y="1" width="40" height="40" rx="8" stroke="#F4F6F8"/>
<path fill-rule="evenodd" clip-rule="evenodd" d="M19.2343 13.1519C18.9951 14.9311 18.3987 16.5026 17.4434 17.8722C17.7417 18.2476 17.9199 18.7228 17.9199 19.2396V26.2796C17.9199 26.6194 17.8429 26.9412 17.7053 27.2285C18.1953 27.4505 18.7461 27.5692 19.3539 27.5834C21.7349 27.6038 23.4928 27.6038 24.6358 27.5835C26.4135 27.552 27.1541 27.0299 27.5787 25.6467C27.9943 24.2931 28.4108 20.6182 28.276 18.7887C28.1995 17.7498 27.7565 17.2076 26.9216 17.1559C26.6134 17.1369 26.263 17.1819 25.7745 17.2883C25.5955 17.3273 25.0517 17.4596 24.6933 17.5468C24.5393 17.5843 24.4195 17.6135 24.3777 17.6233C24.0627 17.6972 23.7782 17.7588 23.4947 17.8131C22.5961 17.9852 22.2162 17.9191 22.0991 17.7254C21.9774 17.524 21.9711 17.2246 22.0497 16.1277C22.0849 15.6366 22.1014 15.3155 22.1044 14.9542C22.1199 13.0931 21.1845 12.2769 19.5393 12.7906C19.376 12.8415 19.2571 12.9824 19.2343 13.1519ZM13.5195 19.2396C13.5195 18.5106 14.1105 17.9196 14.8395 17.9196H15.7195C16.4485 17.9196 17.0395 18.5106 17.0395 19.2396V26.2796C17.0395 27.0087 16.4485 27.5996 15.7195 27.5996H14.8395C14.1105 27.5996 13.5195 27.0087 13.5195 26.2796V19.2396Z" fill="#C4CDD5"/>
</svg>
