<svg width="142" height="29" viewBox="0 0 142 29" fill="none" xmlns="http://www.w3.org/2000/svg">
<path d="M55.975 3.09372H60.0629V16.2461C60.0629 17.7773 59.7348 19.067 59.0786 20.1152C58.4314 21.1634 57.5336 21.9518 56.3852 22.4804C55.2459 23.0091 53.9334 23.2734 52.4477 23.2734C50.962 23.2734 49.6404 23.0091 48.4828 22.4804C47.3344 21.9518 46.4321 21.1634 45.7758 20.1152C45.1287 19.067 44.8051 17.7773 44.8051 16.2461V3.09372H48.9067V16.2461C48.9067 17.1393 49.048 17.8685 49.3305 18.4336C49.6131 18.9987 50.0187 19.4134 50.5473 19.6777C51.0851 19.942 51.7185 20.0742 52.4477 20.0742C53.1951 20.0742 53.8286 19.942 54.3481 19.6777C54.8767 19.4134 55.2778 18.9987 55.5512 18.4336C55.8338 17.8685 55.975 17.1393 55.975 16.2461V3.09372Z" fill="#4592FF"/>
<path d="M63.4399 3.09372H70.8637C72.3858 3.09372 73.6938 3.32158 74.7875 3.77731C75.8904 4.23304 76.7381 4.90752 77.3305 5.80075C77.923 6.69398 78.2192 7.79229 78.2192 9.09567C78.2192 10.1621 78.0369 11.0781 77.6723 11.8437C77.3168 12.6002 76.811 13.2337 76.1547 13.7441C75.5076 14.2454 74.7465 14.6465 73.8715 14.9472L72.5727 15.6308H66.1196L66.0922 12.4316H70.8911C71.6111 12.4316 72.2081 12.304 72.6821 12.0488C73.156 11.7936 73.5115 11.4381 73.7485 10.9824C73.9946 10.5267 74.1176 9.99802 74.1176 9.39645C74.1176 8.75843 73.9991 8.207 73.7621 7.74216C73.5252 7.27731 73.1651 6.92184 72.6821 6.67575C72.199 6.42966 71.5929 6.30661 70.8637 6.30661H67.5414V23H63.4399V3.09372ZM74.5688 23L70.0297 14.1269L74.3637 14.0996L78.9575 22.8086V23H74.5688Z" fill="#4592FF"/>
<path d="M94.1743 19.8008V23H84.1528V19.8008H94.1743ZM85.4789 3.09372V23H81.3774V3.09372H85.4789Z" fill="#4592FF"/>
<path d="M95.6508 15.7539V15.4668C95.6508 14.3821 95.8058 13.3841 96.1157 12.4726C96.4256 11.5521 96.8767 10.7545 97.4692 10.08C98.0616 9.40557 98.7908 8.88148 99.6567 8.50778C100.523 8.12497 101.516 7.93356 102.637 7.93356C103.758 7.93356 104.756 8.12497 105.631 8.50778C106.506 8.88148 107.24 9.40557 107.832 10.08C108.434 10.7545 108.89 11.5521 109.2 12.4726C109.51 13.3841 109.664 14.3821 109.664 15.4668V15.7539C109.664 16.8294 109.51 17.8274 109.2 18.748C108.89 19.6595 108.434 20.457 107.832 21.1406C107.24 21.8151 106.511 22.3392 105.645 22.7129C104.779 23.0866 103.786 23.2734 102.664 23.2734C101.543 23.2734 100.545 23.0866 99.6703 22.7129C98.8045 22.3392 98.0707 21.8151 97.4692 21.1406C96.8767 20.457 96.4256 19.6595 96.1157 18.748C95.8058 17.8274 95.6508 16.8294 95.6508 15.7539ZM99.5883 15.4668V15.7539C99.5883 16.3737 99.643 16.9524 99.7524 17.4902C99.8618 18.028 100.035 18.5019 100.272 18.9121C100.518 19.3131 100.837 19.6276 101.229 19.8554C101.621 20.0833 102.099 20.1972 102.664 20.1972C103.211 20.1972 103.681 20.0833 104.073 19.8554C104.465 19.6276 104.779 19.3131 105.016 18.9121C105.253 18.5019 105.426 18.028 105.536 17.4902C105.654 16.9524 105.713 16.3737 105.713 15.7539V15.4668C105.713 14.8652 105.654 14.3001 105.536 13.7715C105.426 13.2337 105.248 12.7597 105.002 12.3496C104.765 11.9303 104.451 11.6022 104.059 11.3652C103.667 11.1282 103.193 11.0097 102.637 11.0097C102.081 11.0097 101.607 11.1282 101.215 11.3652C100.832 11.6022 100.518 11.9303 100.272 12.3496C100.035 12.7597 99.8618 13.2337 99.7524 13.7715C99.643 14.3001 99.5883 14.8652 99.5883 15.4668Z" fill="#4592FF"/>
<path d="M121.45 8.207H125.018V22.5078C125.018 23.8567 124.717 25.0006 124.116 25.9394C123.523 26.8873 122.694 27.6028 121.627 28.0859C120.561 28.5781 119.321 28.8242 117.909 28.8242C117.289 28.8242 116.633 28.7422 115.94 28.5781C115.256 28.414 114.6 28.1588 113.971 27.8125C113.351 27.4661 112.832 27.0286 112.413 26.5L114.149 24.1758C114.605 24.7044 115.133 25.1146 115.735 25.4062C116.336 25.707 117.002 25.8574 117.731 25.8574C118.442 25.8574 119.043 25.7252 119.536 25.4609C120.028 25.2057 120.406 24.8274 120.67 24.3261C120.935 23.834 121.067 23.2369 121.067 22.5351V11.625L121.45 8.207ZM111.497 15.7812V15.4941C111.497 14.3639 111.633 13.3385 111.907 12.4179C112.189 11.4883 112.586 10.6907 113.096 10.0254C113.616 9.36 114.245 8.84502 114.983 8.48044C115.721 8.11585 116.555 7.93356 117.485 7.93356C118.469 7.93356 119.294 8.11585 119.959 8.48044C120.625 8.84502 121.172 9.36455 121.6 10.039C122.028 10.7044 122.361 11.4928 122.598 12.4043C122.844 13.3066 123.036 14.2955 123.172 15.3711V16C123.036 17.0299 122.831 17.9869 122.557 18.8711C122.284 19.7552 121.924 20.5299 121.477 21.1953C121.03 21.8515 120.474 22.3619 119.809 22.7265C119.153 23.0911 118.369 23.2734 117.457 23.2734C116.546 23.2734 115.721 23.0866 114.983 22.7129C114.254 22.3392 113.629 21.8151 113.11 21.1406C112.59 20.4661 112.189 19.6731 111.907 18.7617C111.633 17.8502 111.497 16.8567 111.497 15.7812ZM115.434 15.4941V15.7812C115.434 16.3919 115.493 16.9616 115.612 17.4902C115.73 18.0188 115.913 18.4883 116.159 18.8984C116.414 19.2994 116.728 19.6139 117.102 19.8418C117.485 20.0605 117.936 20.1699 118.456 20.1699C119.176 20.1699 119.763 20.0195 120.219 19.7187C120.675 19.4088 121.017 18.985 121.245 18.4472C121.472 17.9095 121.605 17.2897 121.641 16.5879V14.7968C121.623 14.2226 121.545 13.7077 121.409 13.2519C121.272 12.7871 121.081 12.3906 120.834 12.0625C120.588 11.7343 120.269 11.4791 119.877 11.2968C119.485 11.1146 119.021 11.0234 118.483 11.0234C117.963 11.0234 117.512 11.1419 117.129 11.3789C116.756 11.6067 116.441 11.9212 116.186 12.3222C115.94 12.7233 115.753 13.1972 115.625 13.7441C115.498 14.2819 115.434 14.8652 115.434 15.4941Z" fill="#4592FF"/>
<path d="M127.452 15.7539V15.4668C127.452 14.3821 127.607 13.3841 127.916 12.4726C128.226 11.5521 128.678 10.7545 129.27 10.08C129.862 9.40557 130.592 8.88148 131.457 8.50778C132.323 8.12497 133.317 7.93356 134.438 7.93356C135.559 7.93356 136.557 8.12497 137.432 8.50778C138.307 8.88148 139.041 9.40557 139.633 10.08C140.235 10.7545 140.691 11.5521 141 12.4726C141.31 13.3841 141.465 14.3821 141.465 15.4668V15.7539C141.465 16.8294 141.31 17.8274 141 18.748C140.691 19.6595 140.235 20.457 139.633 21.1406C139.041 21.8151 138.312 22.3392 137.446 22.7129C136.58 23.0866 135.586 23.2734 134.465 23.2734C133.344 23.2734 132.346 23.0866 131.471 22.7129C130.605 22.3392 129.872 21.8151 129.27 21.1406C128.678 20.457 128.226 19.6595 127.916 18.748C127.607 17.8274 127.452 16.8294 127.452 15.7539ZM131.389 15.4668V15.7539C131.389 16.3737 131.444 16.9524 131.553 17.4902C131.663 18.028 131.836 18.5019 132.073 18.9121C132.319 19.3131 132.638 19.6276 133.03 19.8554C133.422 20.0833 133.9 20.1972 134.465 20.1972C135.012 20.1972 135.482 20.0833 135.873 19.8554C136.265 19.6276 136.58 19.3131 136.817 18.9121C137.054 18.5019 137.227 18.028 137.336 17.4902C137.455 16.9524 137.514 16.3737 137.514 15.7539V15.4668C137.514 14.8652 137.455 14.3001 137.336 13.7715C137.227 13.2337 137.049 12.7597 136.803 12.3496C136.566 11.9303 136.252 11.6022 135.86 11.3652C135.468 11.1282 134.994 11.0097 134.438 11.0097C133.882 11.0097 133.408 11.1282 133.016 11.3652C132.633 11.6022 132.319 11.9303 132.073 12.3496C131.836 12.7597 131.663 13.2337 131.553 13.7715C131.444 14.3001 131.389 14.8652 131.389 15.4668Z" fill="#4592FF"/>
<path fill-rule="evenodd" clip-rule="evenodd" d="M4.27393 5.93123C6.44724 4.39665 8.83638 5.18231 10.1424 7.22885L23.667 28.4246L33.8093 12.5272L27.0475 1.93047C25.6069 -0.327354 22.1184 -0.941381 20.2858 1.93047L16.9049 7.22885C20.1938 5.51094 22.2956 5.08024 23.6666 7.22885L27.0479 12.5272L23.667 17.8256C20.2861 12.5272 16.9052 7.22885 13.524 1.93047C12.1032 -0.295174 8.69401 -0.923178 6.84153 1.80923L6.83795 1.81475C6.81227 1.85278 6.78659 1.89146 6.76156 1.93047L6.76351 1.93405L4.27393 5.93123Z" fill="#4592FF"/>
<path fill-rule="evenodd" clip-rule="evenodd" d="M13.5235 23.1243L13.5229 23.123L13.5235 23.122L7.04847 12.9765C5.24897 10.1569 1.32394 10.4524 0 12.5272L6.76144 23.124H6.76372L10.143 28.4224L13.5222 23.1243H13.5235Z" fill="#4592FF"/>
</svg>
