<svg width="37" height="38" viewBox="0 0 37 38" fill="none" xmlns="http://www.w3.org/2000/svg">
<rect x="1" y="1" width="35" height="36" rx="17.5" fill="white" stroke="#E7EEF5"/>
<path d="M18.5945 19.8403C18.7104 19.9467 18.8552 20 19 20C19.1448 20 19.2896 19.9467 19.4055 19.8403C19.5523 19.7054 23 16.4995 23 13.1746C23 10.8727 21.2057 9 19.0001 9C16.7944 9 15 10.8727 15 13.1746C14.9999 16.4995 18.4477 19.7054 18.5945 19.8403ZM19 12.0838C19.5726 12.0838 20.037 12.572 20.037 13.1746C20.037 13.777 19.5726 14.2653 19 14.2653C18.4272 14.2653 17.9629 13.777 17.9629 13.1746C17.9629 12.572 18.4272 12.0838 19 12.0838Z" fill="#637381"/>
<path d="M27.4082 20.5093L26.9013 18.7331C26.819 18.4448 26.5556 18.2461 26.256 18.2461H22.6385C22.5077 18.4405 22.3698 18.6357 22.2238 18.8319C21.2099 20.1942 20.1791 21.1157 20.0648 21.2164C19.7706 21.4755 19.3926 21.6182 19.0003 21.6182C18.6083 21.6182 18.2304 21.4757 17.9357 21.2163C17.8215 21.1157 16.7906 20.194 15.7767 18.8319C15.6308 18.6357 15.4928 18.4404 15.3621 18.2461H11.7445C11.4449 18.2461 11.1815 18.4448 11.0992 18.7331L10.4951 20.85L23.9988 23.3234L27.4082 20.5093Z" fill="#637381"/>
<path d="M28.9739 25.9994L27.679 21.4609L21.2539 26.8548H28.3287C28.5392 26.8548 28.7376 26.756 28.8644 26.5879C28.9912 26.4197 29.0316 26.2018 28.9739 25.9994Z" fill="#637381"/>
<path d="M12.2857 22.1333L10.2359 21.7578L9.02575 25.9988C8.96804 26.2013 9.00851 26.4192 9.13538 26.5873C9.26218 26.7553 9.4605 26.8541 9.67107 26.8541H12.2857V22.1333Z" fill="#637381"/>
<path d="M13.2256 22.3057V26.8543H19.7931L23.0647 24.1078L13.2256 22.3057Z" fill="#637381"/>
</svg>
