<svg width="29" height="29" viewBox="0 0 29 29" fill="none" xmlns="http://www.w3.org/2000/svg">
<path fill-rule="evenodd" clip-rule="evenodd" d="M20.1208 18.9182L23.0088 21.8054C23.8111 22.6075 22.6079 23.8111 21.8056 23.0089L18.9173 20.1215C15.4479 22.983 10.3296 22.7643 7.11342 19.5482C3.67964 16.1144 3.67964 10.5472 7.11342 7.11342C10.5472 3.67964 16.1144 3.67964 19.5482 7.11342C22.7647 10.3299 22.983 15.4488 20.1208 18.9182ZM18.3447 8.31678C15.5755 5.54761 11.0858 5.54761 8.31663 8.31678C5.54745 11.086 5.54745 15.5757 8.31663 18.3448C11.0858 21.114 15.5755 21.114 18.3447 18.3448C21.1139 15.5757 21.1139 11.086 18.3447 8.31678Z" fill="white"/>
</svg>
