<svg width="20" height="20" viewBox="0 0 20 20" fill="none" xmlns="http://www.w3.org/2000/svg">
<path fill-rule="evenodd" clip-rule="evenodd" d="M18.4001 4.76448C17.7687 5.03985 17.101 5.22189 16.4177 5.30493C17.1386 4.872 17.6788 4.19092 17.9381 3.38804C17.2607 3.79343 16.5191 4.07905 15.7457 4.23248C14.6824 3.0733 12.9743 2.78279 11.5909 3.52584C10.2075 4.2689 9.49821 5.8578 9.8657 7.39071C7.09568 7.24986 4.5155 5.93299 2.7677 3.76804C2.46457 4.30018 2.30529 4.90282 2.3057 5.51604C2.30351 6.67268 2.87741 7.75364 3.8345 8.39559C3.2868 8.38061 2.7508 8.23287 2.2721 7.96493V8.00715C2.28056 9.65211 3.43922 11.064 5.0441 11.3849C4.74443 11.4766 4.43331 11.5249 4.1201 11.5285C3.90329 11.5259 3.68701 11.5062 3.4733 11.4694C3.92772 12.8763 5.21929 13.8391 6.6905 13.8676C5.47855 14.8263 3.98224 15.3495 2.4401 15.3538C2.15932 15.3547 1.87876 15.3378 1.6001 15.3031C3.17462 16.3251 5.0095 16.8677 6.8837 16.8654C9.49632 16.8926 12.0102 15.8631 13.8601 14.0082C15.7099 12.1533 16.7405 9.62877 16.7201 7.00226C16.7201 6.85871 16.7201 6.70671 16.7201 6.55471C17.3792 6.06055 17.9477 5.45475 18.4001 4.76448V4.76448Z" fill="white"/>
</svg>
