<svg width="20" height="20" viewBox="0 0 20 20" fill="none" xmlns="http://www.w3.org/2000/svg">
<path fill-rule="evenodd" clip-rule="evenodd" d="M18.3962 8.22918C18.434 7.1188 18.1951 6.01673 17.7018 5.0253C17.367 4.6185 16.9025 4.34397 16.3891 4.24955C14.2657 4.05369 12.1334 3.97341 10.0015 4.00906C7.8774 3.97179 5.75282 4.04948 3.63682 4.24179C3.21847 4.31915 2.83132 4.51861 2.52261 4.81585C1.83577 5.45973 1.75946 6.5613 1.68314 7.49221C1.57242 9.16595 1.57242 10.8454 1.68314 12.5191C1.70522 13.0431 1.78196 13.5631 1.91209 14.0706C2.0041 14.4624 2.19027 14.8249 2.45393 15.1256C2.76474 15.4386 3.1609 15.6494 3.59103 15.7307C5.23633 15.9372 6.89413 16.0227 8.55153 15.9867C11.2226 16.0255 13.5655 15.9867 16.3357 15.7695C16.7764 15.6932 17.1837 15.4821 17.5033 15.1644C17.717 14.9472 17.8766 14.6812 17.9689 14.3887C18.2418 13.5374 18.3758 12.6464 18.3657 11.7511C18.3962 11.3167 18.3962 8.69463 18.3962 8.22918ZM8.2768 12.2166V7.41463L12.7947 9.82723C11.5278 10.5409 9.85653 11.3477 8.2768 12.2166Z" fill="white"/>
</svg>
