<svg id="Group_13" data-name="Group 13" xmlns="http://www.w3.org/2000/svg" xmlns:xlink="http://www.w3.org/1999/xlink" width="24.561" height="18.687" viewBox="0 0 24.561 18.687">
  <defs>
    <clipPath id="clip-path">
      <rect id="Rectangle_54" data-name="Rectangle 54" width="24.561" height="18.687" fill="#fff"/>
    </clipPath>
  </defs>
  <g id="Group_12" data-name="Group 12" clip-path="url(#clip-path)">
    <path id="Path_11" data-name="Path 11" d="M0,14.434V12.419c.014-.1.03-.2.042-.3C.129,11.363.18,10.6.309,9.857A21.126,21.126,0,0,1,3.651,1.7.62.62,0,0,1,3.9,1.486,20.258,20.258,0,0,1,8.639.007.208.208,0,0,1,8.9.136c.152.317.329.622.463.946.077.187.174.216.36.2a19.482,19.482,0,0,1,2.124-.168c1,.01,2.008.1,3.011.172.167.012.253-.018.323-.183.136-.323.307-.631.457-.949a.219.219,0,0,1,.28-.144,20.235,20.235,0,0,1,4.719,1.47.626.626,0,0,1,.265.222c.434.708.886,1.407,1.276,2.139a19.733,19.733,0,0,1,2.242,7.2c.05.459.091.918.137,1.377v1.967c-.031.333-.051.667-.1,1a.5.5,0,0,1-.167.308,20.066,20.066,0,0,1-5.508,2.854c-.559.188-.57.193-.891-.306-.344-.535-.665-1.085-1.012-1.655.39-.171.735-.311,1.07-.472s.667-.348,1.009-.528c-.359-.426-.424-.44-.852-.258a14.439,14.439,0,0,1-11.685-.007c-.4-.169-.533-.134-.843.285l2.086,1.009c-.417.659-.825,1.3-1.223,1.939-.09.145-.18.158-.335.109a20.261,20.261,0,0,1-5.847-2.97A.506.506,0,0,1,.1,15.383c-.048-.314-.067-.632-.1-.948m18.573-4.221a3.516,3.516,0,0,0-.033-.378,3.143,3.143,0,0,0-.123-.486,2.113,2.113,0,0,0-3.474-.96,2.677,2.677,0,0,0-.009,3.77,2.026,2.026,0,0,0,2.919-.046,2.606,2.606,0,0,0,.719-1.9m-8.162.251a2.782,2.782,0,0,0-.479-1.739,2.067,2.067,0,0,0-3.273-.209,2.686,2.686,0,0,0,.122,3.649,2.021,2.021,0,0,0,2.884-.028,2.477,2.477,0,0,0,.746-1.674" transform="translate(0 0)" fill="#fff"/>
  </g>
</svg>
