<svg xmlns="http://www.w3.org/2000/svg" viewBox="0 0 768.11 244.2"><defs><style>.cls-1{fill:#fff;}</style></defs><g id="Calque_2" data-name="Calque 2"><g id="Calque_1-2" data-name="Calque 1"><path class="cls-1" d="M67.53,101.67h50.61V84.21H67.53c-10.22,0-15.1-4.73-15.1-12.58,0-8.14,5.18-12.13,15.24-12.13h49.58V43.66H68.12c-10.07,0-15.25-3.7-15.25-11.84,0-7.7,4.59-12.58,15.1-12.58h50V1.78H68C44.44,1.78,34.52,13,34.52,29l-.29,45.43C34.23,90,43.85,101.67,67.53,101.67Z"/><polygon class="cls-1" points="208.86 1.78 132.94 1.78 132.94 19.24 162.1 19.24 162.1 101.67 179.71 101.67 179.71 19.24 208.86 19.24 208.86 1.78"/><path class="cls-1" d="M254.59,101.67h50.62V84.21H254.59c-10.21,0-15.09-4.73-15.09-12.58,0-8.14,5.18-12.13,15.24-12.13h49.58V43.66H255.19c-10.07,0-15.25-3.7-15.25-11.84,0-7.7,4.59-12.58,15.1-12.58h50V1.78H255C231.51,1.78,221.59,13,221.59,29l-.29,45.43C221.3,90,230.92,101.67,254.59,101.67Z"/><path class="cls-1" d="M396.23,32.41c0,7.11-4,13.91-13.91,13.91H343.39c-10.95,0-15.69,4.59-15.69,15.84v39.51h17.47V65.56a2.2,2.2,0,0,1,2.51-2.51h26.05l22.79,38.62h19.39l-23.23-40c15.24-4.29,21.16-17.61,21.16-30,0-16-9.62-29.89-32.12-29.89H327.56V19.24h54.76C391.94,19.24,396.23,25.31,396.23,32.41Z"/><path class="cls-1" d="M516.7,103.45c15.39,0,22.94-8.73,22.94-21.9V1.78H522v79c0,3.4-2.22,5.62-5.92,5.62a6.75,6.75,0,0,1-6.36-4.14L480.59,18.5C476.44,7.1,470.23,0,456.31,0c-15.54,0-22.94,8.73-22.94,21.76v79.91l.12,40.85v79c0,3.41-2.07,5.63-5,5.63A5.82,5.82,0,0,1,423,223l-24.27-63.78c-3.85-11.4-10.36-18.5-23.68-18.5-14.65,0-22,8.73-22,21.75v59.05c0,3.41-2.22,5.63-5.18,5.63-2.67,0-4.44-1.63-5.48-4.15l-29.9-80.51H293.78l30.93,83.18c3.85,11.39,10.21,18.5,23.53,18.5,14.8,0,22.2-8.74,22.2-21.91v-58.9c0-3.55,2.07-5.77,5-5.77a6,6,0,0,1,5.63,4.29l24.27,63.79c3.85,11.39,10.21,18.5,23.53,18.5,14.8,0,22.2-8.74,22.2-21.91V142.52l-.26-40.85v-79c0-3.55,2.07-5.77,6.07-5.77,3.1,0,4.88,1.33,6.21,4.29L492.28,85C496.42,96.35,502.78,103.45,516.7,103.45Z"/><path class="cls-1" d="M604,17.91a4.76,4.76,0,0,1,4.88,3.4l30.34,80.36h19.39L624.88,12.88C621.33,3.55,614.52,0,604.16,0s-17.31,3.55-21,12.88l-35.08,88.79h19.24L599,21.31A5.05,5.05,0,0,1,604,17.91Z"/><path class="cls-1" d="M743.28,101.67V84.21H704.51c-15.69,0-20.43-7.55-20.43-17.17V1.78H666.62V67.19c0,20,10.36,34.48,36.85,34.48Z"/><path class="cls-1" d="M0,177v65.41H17.46V202.91H77.7V186.33H17.46v-9.47C17.46,167.53,22.2,160,38,160H78.29V142.52H36.85C10.36,142.52,0,157,0,177Z"/><path class="cls-1" d="M115.44,207.79V142.52H98v65.42c0,20,10.36,34.48,36.85,34.48h39.82V225H135.86C120.17,225,115.44,217.41,115.44,207.79Z"/><path class="cls-1" d="M243.16,142.52H229.54c-29,0-45.13,16.58-45.13,50.17s16,49.73,45.13,49.73h13.62c29.16,0,45.14-16.28,45.14-49.73S272.17,142.52,243.16,142.52Zm0,82.44H229.54c-19.38,0-27.67-9.47-27.67-32.27S210.3,160,229.54,160h13.62c19.24,0,27.53,9.76,27.53,32.56S262.4,225,243.16,225Z"/><path class="cls-1" d="M489.43,212.38c0-8.14,5.18-12.14,15.24-12.14h49.58V184.41H505.12c-10.07,0-15.25-3.7-15.25-11.84,0-7.7,4.59-12.58,15.1-12.58h50V142.52H505c-23.53,0-33.45,11.25-33.45,27.23l-.29,45.44c0,15.54,9.62,27.23,33.3,27.23h50.61V225H504.53C494.31,225,489.43,220.22,489.43,212.38Z"/><path class="cls-1" d="M663.77,172.42c0-16-9.62-29.9-32.12-29.9H577.49V160h54.76c9.62,0,13.91,6.06,13.91,13.17s-4,13.91-13.91,13.91H593.32c-11,0-15.68,4.59-15.68,15.84v39.51H595.1V206.31a2.21,2.21,0,0,1,2.52-2.52h26l22.79,38.63h19.39l-23.23-40C657.85,198.17,663.77,184.85,663.77,172.42Z"/><path class="cls-1" d="M734.51,183.67H711.13c-11.69,0-14.8-5.78-14.8-11.84,0-7,4-11.84,13-11.84h51.21V142.52H709.94c-22.2,0-31.08,12.14-31.08,28.71,0,13.92,6.22,28.86,32.86,28.86H735c12.28,0,15.68,5.92,15.68,12.44,0,7.25-4.29,12.43-13.76,12.43H680.64v17.46h55.65c22.79,0,31.82-12.43,31.82-29.3C768.11,198.76,761.74,183.67,734.51,183.67Z"/></g></g></svg>