<svg xmlns="http://www.w3.org/2000/svg" width="132.162" height="42.012" viewBox="0 0 132.162 42.012">
  <g id="Calque_2" data-name="Calque 2" transform="translate(683 -61)">
    <g id="Calque_1" data-name="Calque 1" transform="translate(-683 61)">
      <path id="Path_12" data-name="Path 12" d="M39.96,18.967h8.708v-3H39.96c-1.758,0-2.6-.814-2.6-2.165,0-1.4.891-2.087,2.622-2.087h8.531V8.986H40.061c-1.733,0-2.624-.637-2.624-2.037,0-1.325.79-2.165,2.6-2.165h8.6v-3h-8.6c-4.054,0-5.761,1.931-5.761,4.684l-.05,7.817C34.23,16.959,35.885,18.967,39.96,18.967Z" transform="translate(-28.34 -1.474)" fill="#fff"/>
      <path id="Path_13" data-name="Path 13" d="M146,1.78H132.94v3h5.017V18.967h3.03V4.784H146Z" transform="translate(-110.066 -1.474)" fill="#fff"/>
      <path id="Path_14" data-name="Path 14" d="M227.028,18.967h8.71v-3h-8.71c-1.757,0-2.6-.814-2.6-2.165,0-1.4.891-2.087,2.622-2.087h8.531V8.986h-8.453c-1.733,0-2.624-.637-2.624-2.037,0-1.325.79-2.165,2.6-2.165h8.6v-3H227.1c-4.042,0-5.749,1.931-5.749,4.684l-.05,7.817C221.3,16.959,222.955,18.967,227.028,18.967Z" transform="translate(-183.223 -1.474)" fill="#fff"/>
      <path id="Path_15" data-name="Path 15" d="M339.375,7.05a2.226,2.226,0,0,1-2.393,2.393h-6.7c-1.884,0-2.7.79-2.7,2.725v6.8h3.006V12.754a.379.379,0,0,1,.432-.432H335.5l3.921,6.645h3.336l-4-6.882a5.06,5.06,0,0,0,3.641-5.162c0-2.753-1.655-5.143-5.527-5.143H327.56v3h9.422A2.16,2.16,0,0,1,339.375,7.05Z" transform="translate(-271.2 -1.474)" fill="#fff"/>
      <path id="Path_16" data-name="Path 16" d="M332.136,17.8c2.648,0,3.947-1.5,3.947-3.768V.306h-3.035V13.9a.924.924,0,0,1-1.019.967,1.162,1.162,0,0,1-1.094-.712L325.923,3.183C325.209,1.222,324.14,0,321.745,0c-2.674,0-3.947,1.5-3.947,3.744V17.493l.021,7.029V38.115a.872.872,0,0,1-.86.969,1,1,0,0,1-.945-.714L311.838,27.4c-.662-1.961-1.783-3.183-4.074-3.183a3.436,3.436,0,0,0-3.785,3.742v10.16a.892.892,0,0,1-.891.969,1,1,0,0,1-.943-.714L297,24.517H293.78L299.1,38.829c.662,1.96,1.757,3.183,4.049,3.183a3.459,3.459,0,0,0,3.82-3.77V28.108a.88.88,0,0,1,.86-.993,1.032,1.032,0,0,1,.969.738l4.176,10.976c.662,1.96,1.757,3.183,4.049,3.183a3.459,3.459,0,0,0,3.82-3.77V24.522l-.045-7.029V3.9a.926.926,0,0,1,1.044-.993,1.06,1.06,0,0,1,1.068.738l5.022,10.979C328.646,16.578,329.741,17.8,332.136,17.8Z" transform="translate(-243.232)" fill="#fff"/>
      <path id="Path_17" data-name="Path 17" d="M557.7,3.082a.819.819,0,0,1,.84.585l5.22,13.827H567.1l-5.8-15.277C560.683.611,559.512,0,557.729,0a3.41,3.41,0,0,0-3.613,2.216L548.08,17.493h3.31l5.451-13.827A.869.869,0,0,1,557.7,3.082Z" transform="translate(-453.777)" fill="#fff"/>
      <path id="Path_18" data-name="Path 18" d="M679.81,18.967v-3h-6.671c-2.7,0-3.515-1.3-3.515-2.954V1.78h-3V13.035c0,3.441,1.783,5.933,6.34,5.933Z" transform="translate(-551.921 -1.474)" fill="#fff"/>
      <path id="Path_19" data-name="Path 19" d="M0,148.453v11.255H3v-6.8H13.369v-2.853H3v-1.629c0-1.605.816-2.9,3.534-2.9h6.932V142.52H6.34C1.783,142.52,0,145.011,0,148.453Z" transform="translate(0 -117.998)" fill="#fff"/>
      <path id="Path_20" data-name="Path 20" d="M101,153.75V142.52H98v11.256c0,3.441,1.783,5.933,6.34,5.933h6.851v-3h-6.678C101.815,156.712,101,155.406,101,153.75Z" transform="translate(-81.138 -117.998)" fill="#fff"/>
      <path id="Path_21" data-name="Path 21" d="M194.519,142.52h-2.343c-4.99,0-7.765,2.853-7.765,8.632s2.753,8.557,7.765,8.557h2.343c5.017,0,7.767-2.8,7.767-8.557S199.51,142.52,194.519,142.52Zm0,14.185h-2.343c-3.335,0-4.761-1.629-4.761-5.552s1.45-5.625,4.761-5.625h2.343c3.31,0,4.737,1.679,4.737,5.6s-1.426,5.582-4.737,5.582Z" transform="translate(-152.68 -117.998)" fill="#fff"/>
      <path id="Path_22" data-name="Path 22" d="M474.386,154.54c0-1.4.891-2.089,2.622-2.089h8.531v-2.724h-8.453c-1.733,0-2.624-.637-2.624-2.037,0-1.325.79-2.165,2.6-2.165h8.6V142.52h-8.6c-4.049,0-5.755,1.936-5.755,4.685l-.05,7.818c0,2.674,1.655,4.685,5.73,4.685H485.7v-3h-8.713C475.226,156.712,474.386,155.889,474.386,154.54Z" transform="translate(-390.174 -117.998)" fill="#fff"/>
      <path id="Path_23" data-name="Path 23" d="M592.335,147.665c0-2.753-1.655-5.145-5.527-5.145H577.49v3.008h9.422a2.159,2.159,0,0,1,2.393,2.266,2.226,2.226,0,0,1-2.393,2.393h-6.7c-1.893,0-2.7.79-2.7,2.725v6.8h3V153.5a.38.38,0,0,1,.434-.434h4.474l3.921,6.647h3.336l-4-6.882A5.048,5.048,0,0,0,592.335,147.665Z" transform="translate(-478.126 -117.998)" fill="#fff"/>
      <path id="Path_24" data-name="Path 24" d="M688.435,149.6h-4.023c-2.011,0-2.547-.995-2.547-2.037,0-1.2.688-2.037,2.237-2.037h8.811V142.52h-8.706c-3.82,0-5.348,2.089-5.348,4.94,0,2.4,1.07,4.966,5.654,4.966h4.006c2.113,0,2.7,1.019,2.7,2.14,0,1.247-.738,2.139-2.368,2.139h-9.684v3h9.575c3.921,0,5.475-2.139,5.475-5.041C694.216,152.2,693.12,149.6,688.435,149.6Z" transform="translate(-562.055 -117.998)" fill="#fff"/>
    </g>
  </g>
</svg>
