<svg id="Contact" xmlns="http://www.w3.org/2000/svg" xmlns:xlink="http://www.w3.org/1999/xlink" width="21.561" height="20.661" viewBox="0 0 21.561 20.661">
  <defs>
    <clipPath id="clip-path">
      <rect id="Rectangle_8" data-name="Rectangle 8" width="21.561" height="20.661" fill="#ced1d4"/>
    </clipPath>
  </defs>
  <g id="Group_11" data-name="Group 11" clip-path="url(#clip-path)">
    <path id="Path_8" data-name="Path 8" d="M20.719,0h.337a.918.918,0,0,1,.505.505V.884c-.056.322-.118.644-.167.967q-.415,2.767-.824,5.534t-.82,5.513c-.222,1.491-.443,2.982-.672,4.472a.761.761,0,0,1-.157.358.7.7,0,0,1-.843.165q-4.562-1.564-9.127-3.122c-.049-.017-.1-.04-.162-.068L17.825,3.817a.225.225,0,0,0-.162.063Q11.952,8.764,6.243,13.652a.332.332,0,0,1-.374.07q-2.592-.895-5.19-1.774A1.02,1.02,0,0,1,0,11.412v-.337a.941.941,0,0,1,.456-.495Q5.963,7.712,11.467,4.836,16.093,2.419,20.719,0" fill="#ced1d4"/>
    <path id="Path_9" data-name="Path 9" d="M143.723,283.137l-1.308,1.78c-.369.5-.733,1.009-1.109,1.506a.668.668,0,0,1-1.16-.066.718.718,0,0,1-.069-.3q-.007-2.018,0-4.037a1.119,1.119,0,0,1,.016-.123l3.634,1.242" transform="translate(-132.208 -266.067)" fill="#ced1d4"/>
  </g>
</svg>
