<svg id="Twitter" xmlns="http://www.w3.org/2000/svg" xmlns:xlink="http://www.w3.org/1999/xlink" width="23.554" height="19.179" viewBox="0 0 23.554 19.179">
  <defs>
    <clipPath id="clip-path">
      <rect id="Rectangle_5" data-name="Rectangle 5" width="23.554" height="19.179" fill="#fff"/>
    </clipPath>
  </defs>
  <g id="Group_5" data-name="Group 5" clip-path="url(#clip-path)">
    <path id="Path_3" data-name="Path 3" d="M0,17.018a9.876,9.876,0,0,0,7.093-1.989,4.993,4.993,0,0,1-4.507-3.375,5.492,5.492,0,0,0,2.15-.1A4.9,4.9,0,0,1,1.96,9.818,4.754,4.754,0,0,1,.911,6.757a4.861,4.861,0,0,0,2.1.577A4.958,4.958,0,0,1,1.579.864a13.8,13.8,0,0,0,9.956,5.08c-.017-.481-.06-.939-.046-1.395A4.817,4.817,0,0,1,15,.179,4.761,4.761,0,0,1,19.7,1.4a.31.31,0,0,0,.324.089A10.018,10.018,0,0,0,22.9.354a5,5,0,0,1-1.992,2.623,9.149,9.149,0,0,0,2.642-.7,9.21,9.21,0,0,1-2.142,2.286.6.6,0,0,0-.261.575,13.729,13.729,0,0,1-1.408,6.324,13.475,13.475,0,0,1-5.1,5.741,13.138,13.138,0,0,1-5.259,1.846,14.358,14.358,0,0,1-4.926-.183A13.493,13.493,0,0,1,.105,17.1C.086,17.085.069,17.07,0,17.018" transform="translate(0 0)" fill="#fff"/>
  </g>
</svg>
